<?xml version="1.0" encoding="utf-8"?>
<!-- Generator: Adobe Illustrator 24.0.2, SVG Export Plug-In . SVG Version: 6.00 Build 0)  -->
<svg version="1.1" id="Layer_1" xmlns="http://www.w3.org/2000/svg" xmlns:xlink="http://www.w3.org/1999/xlink" x="0px" y="0px"
	 viewBox="0 0 18 18" style="enable-background:new 0 0 18 18;" xml:space="preserve">
<style type="text/css">
	.st0{fill:#939393;}
	.st1{fill:#707070;}
	.st2{fill:#D01800;}
	.st3{fill:#FF0C00;}
</style>
<g>
	<path class="st1" d="M15.54,5.96c-0.2-0.64-0.48-1.1-0.84-1.43l0.01,0c0,0-1.15-1.37-5.52-1.37C6.37,3.19,4.83,3.67,4.05,4.03
		C3.9,4.1,3.77,4.17,3.63,4.26C3.55,4.32,3.49,4.36,3.44,4.4c0,0,0,0,0,0C3.38,4.44,3.36,4.47,3.36,4.47l0,0
		c-0.38,0.34-0.68,0.81-0.9,1.49C1.84,7.89,3.16,9.08,3.94,9.45C4.05,9.5,4.17,9.53,4.29,9.53c0.07,0,0.13-0.01,0.2-0.03l0,0
		c0,0,0.55,0.04,0.93-1.05C5.8,7.37,4.25,7.1,4.28,6.41C4.31,5.73,4.81,5.49,5.83,5.4C6.3,5.36,6.89,5.36,7.68,5.36h0.74h1.17h0.74
		c0.89,0,1.54,0.01,2.02,0.05c0.95,0.11,1.42,0.34,1.45,1c0.03,0.69-1.53,0.96-1.14,2.05c0.1,0.29,0.22,0.5,0.33,0.65
		c0.1,0.16,0.24,0.28,0.4,0.35c0,0,0,0,0.01,0c0.1,0.04,0.21,0.07,0.32,0.07c0.12,0,0.24-0.03,0.36-0.08
		C14.84,9.08,16.16,7.89,15.54,5.96z"/>
	<path class="st1" d="M13.72,10.92c-0.25,0-0.49-0.05-0.75-0.15l-0.06-0.03c-0.38-0.17-0.67-0.42-0.87-0.75
		c-0.18-0.26-0.33-0.55-0.46-0.9c-0.39-1.1,0.17-1.85,0.64-2.29c-0.46-0.04-1.18-0.05-1.89-0.05H7.69c-0.87,0-1.38,0.01-1.77,0.04
		c-0.02,0-0.04,0-0.05,0.01c0.47,0.44,1.03,1.19,0.64,2.3c-0.53,1.5-1.45,1.76-1.87,1.8c-0.09,0.02-0.21,0.03-0.33,0.03
		c-0.14,0-0.28-0.02-0.42-0.05l-0.22,2.85c0,0.62,0.49,1.12,1.08,1.12h8.49c0.6,0,1.08-0.5,1.08-1.12l-0.27-2.84
		C13.95,10.91,13.83,10.92,13.72,10.92z M7.64,13.62H6.21v-0.61h1.44V13.62z M7.64,12.49H6.21v-0.61h1.44V12.49z M7.64,11.36H6.21
		v-0.61h1.44V11.36z M9.72,13.62H8.28v-0.61h1.44V13.62z M9.72,12.49H8.28v-0.61h1.44V12.49z M9.72,11.36H8.28v-0.61h1.44V11.36z
		 M11.79,13.62h-1.44v-0.61h1.44V13.62z M11.79,12.49h-1.44v-0.61h1.44V12.49z M11.79,11.36h-1.44v-0.61h1.44V11.36z"/>
</g>
</svg>
