<?xml version="1.0" encoding="utf-8"?>
<!-- Generator: Adobe Illustrator 24.0.2, SVG Export Plug-In . SVG Version: 6.00 Build 0)  -->
<svg version="1.1" id="Layer_1" xmlns="http://www.w3.org/2000/svg" xmlns:xlink="http://www.w3.org/1999/xlink" x="0px" y="0px"
	 viewBox="0 0 18 18" style="enable-background:new 0 0 18 18;" xml:space="preserve">
<style type="text/css">
	.st0{fill:#939393;}
	.st1{fill:#707070;}
	.st2{fill:#D01800;}
	.st3{fill:#FF0C00;}
</style>
<g>
	<path class="st1" d="M13.2,13.58c-0.18-0.21-0.37-0.41-0.58-0.6c-0.49,0.87-1.13,1.56-1.87,1.98
		C11.68,14.69,12.51,14.21,13.2,13.58z"/>
	<path class="st1" d="M4.8,13.58c0.69,0.63,1.52,1.12,2.44,1.39c-0.74-0.43-1.38-1.12-1.87-1.98C5.17,13.16,4.98,13.36,4.8,13.58z"
		/>
	<path class="st1" d="M8.77,11.13v-1.9h-3.9c0.03,1.11,0.27,2.15,0.66,3.03C6.45,11.58,7.57,11.18,8.77,11.13z"/>
	<path class="st1" d="M9.23,14.97c1.23-0.1,2.31-0.97,3.03-2.28c-0.86-0.65-1.9-1.04-3.03-1.09V14.97z"/>
	<path class="st1" d="M8.77,14.97V11.6c-1.12,0.05-2.16,0.44-3.03,1.09C6.45,14,7.54,14.87,8.77,14.97z"/>
	<path class="st1" d="M8.77,8.77V7C7.55,6.95,6.42,6.53,5.49,5.84C5.11,6.7,4.89,7.69,4.86,8.77H8.77z"/>
	<path class="st1" d="M8.77,3.03C7.51,3.13,6.4,4.04,5.69,5.41c0.87,0.67,1.93,1.08,3.08,1.13V3.03z"/>
	<path class="st1" d="M4.73,4.48c0.18,0.22,0.38,0.43,0.59,0.63C5.82,4.2,6.48,3.48,7.24,3.04C6.29,3.32,5.44,3.82,4.73,4.48z"/>
	<path class="st1" d="M12.89,5.54c0.43,0.94,0.69,2.04,0.72,3.22h1.6c-0.06-1.52-0.66-2.9-1.61-3.95
		C13.38,5.08,13.14,5.32,12.89,5.54z"/>
	<path class="st1" d="M5.15,12.55c-0.45-0.96-0.73-2.1-0.76-3.32h-1.6c0.06,1.55,0.68,2.95,1.67,4.01C4.68,13,4.9,12.76,5.15,12.55z
		"/>
	<path class="st1" d="M4.39,8.77c0.03-1.18,0.29-2.28,0.72-3.22c-0.25-0.22-0.49-0.47-0.7-0.73C3.45,5.87,2.85,7.25,2.79,8.77H4.39z
		"/>
	<path class="st1" d="M13.61,9.23c-0.03,1.22-0.3,2.36-0.76,3.32c0.25,0.21,0.48,0.44,0.69,0.69c0.99-1.06,1.61-2.46,1.67-4.01
		H13.61z"/>
	<path class="st1" d="M9.23,7v1.76h3.9c-0.03-1.07-0.25-2.07-0.62-2.93C11.58,6.53,10.45,6.95,9.23,7z"/>
	<path class="st1" d="M9.23,9.23v1.9c1.2,0.05,2.31,0.46,3.24,1.13c0.4-0.88,0.63-1.91,0.66-3.03H9.23z"/>
	<path class="st1" d="M13.27,4.48c-0.7-0.66-1.56-1.17-2.51-1.45c0.76,0.44,1.42,1.16,1.91,2.07C12.88,4.92,13.08,4.71,13.27,4.48z"
		/>
	<path class="st1" d="M9.23,3.03v3.5c1.15-0.05,2.2-0.46,3.08-1.13C11.6,4.04,10.49,3.13,9.23,3.03z"/>
</g>
</svg>
