<?xml version="1.0" encoding="utf-8"?>
<!-- Generator: Adobe Illustrator 24.0.2, SVG Export Plug-In . SVG Version: 6.00 Build 0)  -->
<svg version="1.1" id="Layer_1" xmlns="http://www.w3.org/2000/svg" xmlns:xlink="http://www.w3.org/1999/xlink" x="0px" y="0px"
	 viewBox="0 0 18 18" style="enable-background:new 0 0 18 18;" xml:space="preserve">
<style type="text/css">
	.st0{fill:#939393;}
	.st1{fill:#707070;}
	.st2{fill:#D01800;}
	.st3{fill:#FF0C00;}
</style>
<g>
	<g>
		<path class="st0" d="M11.41,2.48c-0.49-0.06-0.96,0.01-1.4,0.16c0.86,0.79,1.4,1.92,1.4,3.18c0,0.71-0.17,1.37-0.47,1.96
			l0.07,0.06c0.32,0.28,0.61,0.58,0.87,0.92c1.24-0.33,2.21-1.38,2.36-2.73C14.43,4.26,13.17,2.67,11.41,2.48z"/>
	</g>
	<g>
		<circle class="st1" cx="7.08" cy="5.81" r="3.2"/>
	</g>
	<g>
		<path class="st1" d="M10.27,8.69c-0.79,0.87-1.93,1.43-3.2,1.43c-1.27,0-2.41-0.55-3.2-1.43c-1.06,0.9-1.73,2.24-1.73,3.74
			c0,0.27,0.03,0.53,0.07,0.79c1.16,1.41,2.92,2.31,4.89,2.31c1.92,0,3.63-0.86,4.8-2.2c0.05-0.29,0.09-0.59,0.09-0.9
			C12,10.94,11.33,9.6,10.27,8.69z"/>
	</g>
	<g>
		<path class="st0" d="M14.12,8.39c-0.47,0.52-1.06,0.92-1.73,1.17c0.48,0.88,0.74,1.86,0.74,2.88c0,0.36-0.04,0.73-0.11,1.11
			l-0.06,0.3l-0.2,0.23c-0.17,0.19-0.35,0.38-0.53,0.55c1.39-0.14,2.63-0.57,3.52-1.6c0.05-0.29,0.09-0.59,0.09-0.9
			C15.84,10.63,15.17,9.29,14.12,8.39z"/>
	</g>
</g>
</svg>
