<?xml version="1.0" encoding="utf-8"?>
<!-- Generator: Adobe Illustrator 24.0.2, SVG Export Plug-In . SVG Version: 6.00 Build 0)  -->
<svg version="1.1" id="Layer_1" xmlns="http://www.w3.org/2000/svg" xmlns:xlink="http://www.w3.org/1999/xlink" x="0px" y="0px"
	 viewBox="0 0 18 18" style="enable-background:new 0 0 18 18;" xml:space="preserve">
<style type="text/css">
	.st0{fill:#939393;}
	.st1{fill:#707070;}
	.st2{fill:#D01800;}
	.st3{fill:#FF0C00;}
</style>
<g>
	<path class="st1" d="M8.15,2.53H2.51v12.94h7.8V4.69C10.31,3.49,9.34,2.53,8.15,2.53z M5.28,13.46H4.34v-2.21h0.94V13.46z
		 M5.28,9.86H4.34V7.65h0.94V9.86z M5.28,6.26H4.34V4.05h0.94V6.26z M8.47,13.46H7.53v-2.21h0.94V13.46z M8.47,9.86H7.53V7.65h0.94
		V9.86z M8.47,6.26H7.53V4.05h0.94V6.26z"/>
	<path class="st0" d="M13.92,6.26h-3.61v9.21h5.18V7.83C15.49,6.97,14.79,6.26,13.92,6.26z M13.87,13.46h-2.21v-0.94h2.21V13.46z
		 M13.87,11.03h-2.21v-0.94h2.21V11.03z M13.87,8.59h-2.21V7.65h2.21V8.59z"/>
</g>
</svg>
