<?xml version="1.0" encoding="utf-8"?>
<!-- Generator: Adobe Illustrator 24.0.2, SVG Export Plug-In . SVG Version: 6.00 Build 0)  -->
<svg version="1.1" id="Layer_1" xmlns="http://www.w3.org/2000/svg" xmlns:xlink="http://www.w3.org/1999/xlink" x="0px" y="0px"
	 viewBox="0 0 18 18" style="enable-background:new 0 0 18 18;" xml:space="preserve">
<style type="text/css">
	.st0{fill:#939393;}
	.st1{fill:#707070;}
	.st2{fill:#D01800;}
	.st3{fill:#FF0C00;}
</style>
<g>
	<path class="st1" d="M4.11,13.73c0.71,0.66,1.57,1.15,2.53,1.44c-0.76-0.44-1.43-1.16-1.93-2.05C4.49,13.31,4.3,13.51,4.11,13.73z"
		/>
	<path class="st1" d="M8.22,2.82c-1.3,0.11-2.44,1.05-3.18,2.46c0.9,0.69,2,1.11,3.18,1.17V2.82z"/>
	<path class="st1" d="M4.04,4.33c0.19,0.23,0.4,0.45,0.62,0.65c0.51-0.94,1.19-1.69,1.98-2.14C5.65,3.12,4.77,3.64,4.04,4.33z"/>
	<path class="st1" d="M12.48,5.42c0.44,0.97,0.71,2.11,0.74,3.33h1.66c-0.06-1.57-0.68-3-1.67-4.09C12.99,4.94,12.74,5.2,12.48,5.42
		z"/>
	<path class="st1" d="M8.7,6.93v1.83h4.04c-0.03-1.11-0.26-2.14-0.65-3.03C11.13,6.45,9.96,6.88,8.7,6.93z"/>
	<path class="st1" d="M12.87,4.33c-0.73-0.69-1.61-1.21-2.59-1.5c0.79,0.46,1.47,1.2,1.98,2.14C12.48,4.77,12.68,4.56,12.87,4.33z"
		/>
	<path class="st1" d="M8.7,2.82v3.62c1.19-0.05,2.28-0.47,3.18-1.17C11.14,3.87,10,2.93,8.7,2.82z"/>
	<g>
		<polygon class="st1" points="8.22,10.49 8.22,9.24 7.4,9.24 		"/>
		<path class="st1" d="M5.5,11.58c-0.4-0.23-0.77-0.47-1.13-0.72c0.12,0.54,0.28,1.04,0.49,1.51c0.12-0.09,0.24-0.17,0.36-0.24
			L5.5,11.58z"/>
		<path class="st1" d="M6.5,9.63l0.2-0.39H5.88C6.08,9.37,6.28,9.5,6.5,9.63z"/>
	</g>
	<g>
		<g>
			<path class="st0" d="M13.01,13.14c-0.04,0-0.09,0-0.13,0c-1.53-0.03-3.38-0.48-5.21-1.28C5.84,11.06,4.25,10,3.2,8.89
				C2.09,7.73,1.68,6.62,2.06,5.77c0.24-0.54,0.77-0.93,1.56-1.12l0.12,0.47C3.29,5.23,2.72,5.46,2.5,5.96
				C2.21,6.61,2.6,7.56,3.55,8.56c1.01,1.07,2.55,2.08,4.31,2.86c1.77,0.78,3.55,1.22,5.02,1.24c1.37,0.02,2.33-0.34,2.62-0.98
				c0.24-0.55,0.01-1.31-0.65-2.14c-0.04-0.05-0.07-0.09-0.11-0.14l0.14-0.15v-0.3l0.06-0.05c0.1,0.11,0.2,0.23,0.29,0.34
				c0.79,0.99,1.04,1.91,0.72,2.64C15.58,12.69,14.54,13.14,13.01,13.14z"/>
		</g>
		<g>
			<polygon class="st0" points="6.43,10.99 7,9.88 7.68,10.93 8.37,11.98 7.12,12.04 5.86,12.11 			"/>
		</g>
	</g>
	<polygon class="st1" points="15.23,9.23 14.88,8.76 14.88,9.24 	"/>
	<polygon class="st1" points="3.7,4.67 3.67,4.64 3.59,4.65 3.62,4.87 3.7,4.85 	"/>
	<path class="st1" d="M2.49,9.3C2.48,9.28,2.46,9.26,2.45,9.24H2.03c0.06,1.6,0.7,3.06,1.73,4.15c0.22-0.26,0.46-0.5,0.71-0.72
		c-0.31-0.66-0.53-1.41-0.66-2.21C3.32,10.09,2.88,9.7,2.49,9.3z"/>
	<path class="st1" d="M7.33,12.5l-1.95,0.1c-0.1,0.07-0.2,0.13-0.3,0.2c0.74,1.36,1.86,2.26,3.13,2.36v-2.31
		C7.92,12.75,7.62,12.63,7.33,12.5z"/>
	<path class="st1" d="M8.7,13.04v2.14c0.97-0.08,1.85-0.63,2.55-1.49C10.43,13.55,9.57,13.34,8.7,13.04z"/>
	<path class="st1" d="M11.79,13.77c-0.43,0.59-0.94,1.07-1.51,1.4c0.9-0.27,1.71-0.73,2.4-1.33C12.39,13.83,12.1,13.8,11.79,13.77z"
		/>
	<path class="st1" d="M12.9,11.69l0.11,0c0.71,0,1.16-0.12,1.4-0.24c0.28-0.68,0.45-1.43,0.48-2.2h-1.66
		c-0.02,0.87-0.17,1.69-0.41,2.44C12.84,11.68,12.87,11.69,12.9,11.69z"/>
	<path class="st1" d="M12.33,11.66c0.24-0.74,0.39-1.55,0.41-2.41H8.7v1.48C9.97,11.23,11.23,11.56,12.33,11.66z"/>
	<path class="st1" d="M3.3,6.34c0.09,0.29,0.19,0.53,0.54,1.06c0.13-0.71,0.32-1.38,0.6-1.98C4.17,5.2,3.93,4.94,3.7,4.67
		c-0.09,0.1-0.17,0.2-0.25,0.3C3.1,5.59,3.3,6.34,3.3,6.34z"/>
	<path class="st1" d="M4.82,5.73C4.53,6.39,4.33,7.14,4.24,7.94l1.04,0.82h2.94V6.93C6.96,6.88,5.79,6.45,4.82,5.73z"/>
</g>
</svg>
