<?xml version="1.0" encoding="utf-8"?>
<!-- Generator: Adobe Illustrator 24.0.2, SVG Export Plug-In . SVG Version: 6.00 Build 0)  -->
<svg version="1.1" id="Layer_1" xmlns="http://www.w3.org/2000/svg" xmlns:xlink="http://www.w3.org/1999/xlink" x="0px" y="0px"
	 viewBox="0 0 18 18" style="enable-background:new 0 0 18 18;" xml:space="preserve">
<style type="text/css">
	.st0{fill:#939393;}
	.st1{fill:#707070;}
	.st2{fill:#D01800;}
	.st3{fill:#FF0C00;}
</style>
<g>
	<path class="st0" d="M8.74,9.15c0.13,0.11,0.3,0.1,0.43,0l5.22-4.29c-0.02,0-0.03-0.01-0.05-0.01H3.66c-0.03,0-0.06,0.01-0.09,0.01
		L8.74,9.15z"/>
	<path class="st1" d="M9.87,9.99c-0.26,0.22-0.59,0.33-0.91,0.33c-0.32,0-0.65-0.11-0.92-0.33L2.79,5.64c0,0.03-0.01,0.06-0.01,0.09
		v6.53c0,0.48,0.39,0.88,0.88,0.88h10.68c0.48,0,0.88-0.39,0.88-0.88V5.73c0-0.04-0.01-0.08-0.01-0.12L9.87,9.99z"/>
</g>
</svg>
