<?xml version="1.0" encoding="utf-8"?>
<!-- Generator: Adobe Illustrator 24.0.2, SVG Export Plug-In . SVG Version: 6.00 Build 0)  -->
<svg version="1.1" id="Layer_1" xmlns="http://www.w3.org/2000/svg" xmlns:xlink="http://www.w3.org/1999/xlink" x="0px" y="0px"
	 viewBox="0 0 18 18" style="enable-background:new 0 0 18 18;" xml:space="preserve">
<style type="text/css">
	.st0{fill:#939393;}
	.st1{fill:#707070;}
	.st2{fill:#D01800;}
	.st3{fill:#FF0C00;}
</style>
<g>
	<g>
		<path class="st0" d="M12.63,7.11h-1.17V6.88c0-1.36-1.1-2.46-2.46-2.46s-2.46,1.1-2.46,2.46v0.24H5.37V6.88
			c0-2,1.63-3.63,3.63-3.63s3.63,1.63,3.63,3.63V7.11z"/>
	</g>
	<path class="st1" d="M12.5,8H5.5C5,8,4.6,8.4,4.6,8.9v4.96c0,0.49,0.4,0.9,0.9,0.9h7.01c0.49,0,0.9-0.4,0.9-0.9V8.9
		C13.4,8.4,13,8,12.5,8z M9,12.79H8.02l0.49-0.85l0.1-0.17c-0.24-0.14-0.4-0.39-0.4-0.68c0-0.44,0.36-0.79,0.79-0.79
		s0.79,0.36,0.79,0.79c0,0.29-0.16,0.55-0.4,0.68l0.1,0.17l0.49,0.85H9z"/>
</g>
</svg>
