<?xml version="1.0" encoding="utf-8"?>
<!-- Generator: Adobe Illustrator 24.0.2, SVG Export Plug-In . SVG Version: 6.00 Build 0)  -->
<svg version="1.1" id="Layer_1" xmlns="http://www.w3.org/2000/svg" xmlns:xlink="http://www.w3.org/1999/xlink" x="0px" y="0px"
	 viewBox="0 0 18 18" style="enable-background:new 0 0 18 18;" xml:space="preserve">
<style type="text/css">
	.st0{fill:#939393;}
	.st1{fill:#707070;}
	.st2{fill:#D01800;}
	.st3{fill:#FF0C00;}
</style>
<g>
	<g>
		<g>
			<polygon class="st0" points="10.98,11.01 8.03,9.75 8.03,6.67 9.17,6.67 9.17,9 11.43,9.96 			"/>
		</g>
	</g>
	<g>
		<g>
			<g>
				<rect x="8.88" y="3.83" class="st1" width="7.57" height="1.13"/>
				<path class="st1" d="M16.51,5.03h-7.7V3.76h7.7V5.03z M8.94,4.9h7.44V3.89H8.94V4.9z"/>
			</g>
		</g>
	</g>
	<g>
		<g>
			<g>
				<rect x="1.61" y="13.05" class="st1" width="7.56" height="1.13"/>
				<path class="st1" d="M9.23,14.25H1.55v-1.26h7.69V14.25z M1.67,14.12H9.1v-1.01H1.67V14.12z"/>
			</g>
		</g>
	</g>
	<g>
		<g>
			<polygon class="st1" points="2.95,15.68 0.6,13.64 2.77,11.25 3.53,11.93 2.06,13.55 3.62,14.9 			"/>
			<path class="st1" d="M2.96,15.77l-2.46-2.12l2.26-2.49l0.85,0.77l-1.47,1.62l1.56,1.35L2.96,15.77z M0.69,13.64l2.26,1.95
				l0.58-0.68l-1.57-1.35l1.47-1.62l-0.66-0.6L0.69,13.64z"/>
		</g>
	</g>
	<g>
		<g>
			<g>
				<polygon class="st1" points="15.19,6.83 14.35,6.07 15.78,4.49 14.26,3.18 15,2.32 17.4,4.4 				"/>
				<path class="st1" d="M15.2,6.92l-0.94-0.85l1.43-1.58l-1.52-1.31L15,2.23l2.5,2.16L15.2,6.92z M14.44,6.07l0.75,0.68l2.12-2.34
					l-2.3-1.99l-0.66,0.76l1.52,1.31L14.44,6.07z"/>
			</g>
		</g>
	</g>
	<g>
		<g>
			<path class="st1" d="M6.07,11.91C5.31,11.18,4.83,10.15,4.83,9c0-2.23,1.81-4.04,4.04-4.04c0.04,0,0.07,0,0.11,0.01h3.12
				c-0.89-0.71-2.01-1.14-3.23-1.14C6.02,3.83,3.7,6.15,3.7,9c0,1.08,0.33,2.08,0.9,2.91H6.07z"/>
			<path class="st1" d="M6.23,11.98H4.56l-0.02-0.03C3.95,11.08,3.63,10.06,3.63,9c0-2.89,2.35-5.24,5.24-5.24
				c1.2,0,2.33,0.4,3.27,1.15l0.14,0.11H8.98c-0.02,0-0.04,0-0.05,0c-0.02,0-0.04,0-0.06,0C6.68,5.03,4.9,6.81,4.9,9
				c0,1.09,0.43,2.1,1.22,2.86L6.23,11.98z M4.63,11.85h1.29C5.18,11.08,4.77,10.07,4.77,9c0-2.26,1.84-4.11,4.11-4.11
				c0.02,0,0.04,0,0.07,0c0.01,0,0.03,0,0.05,0h2.94c-0.89-0.66-1.94-1.01-3.05-1.01C6.06,3.89,3.76,6.18,3.76,9
				C3.76,10.02,4.06,11,4.63,11.85z"/>
		</g>
	</g>
	<g>
		<g>
			<path class="st1" d="M13.16,6.1h-1.48c0.76,0.74,1.24,1.76,1.24,2.9c0,2.23-1.81,4.04-4.04,4.04c-0.05,0-0.1-0.01-0.16-0.01v0.01
				H5.65c0.89,0.71,2.01,1.13,3.23,1.13c2.85,0,5.18-2.32,5.18-5.18C14.05,7.93,13.72,6.93,13.16,6.1z"/>
			<path class="st1" d="M8.88,14.25c-1.2,0-2.33-0.4-3.27-1.15l-0.14-0.11l3.25-0.01c0.02,0,0.04,0,0.06,0c0.03,0,0.06,0,0.09,0
				c2.19,0,3.98-1.78,3.98-3.98c0-1.08-0.43-2.1-1.22-2.86l-0.11-0.11h1.67l0.02,0.03c0.59,0.87,0.9,1.89,0.9,2.94
				C14.12,11.89,11.77,14.25,8.88,14.25z M5.84,13.11c0.89,0.66,1.93,1.01,3.04,1.01c2.82,0,5.11-2.29,5.11-5.11
				c0-1.02-0.3-2-0.86-2.84h-1.29c0.74,0.77,1.14,1.77,1.14,2.84c0,2.26-1.84,4.11-4.11,4.11c-0.03,0-0.07,0-0.1,0
				c0,0-0.01,0-0.01,0l-0.04,0.01H5.84z"/>
		</g>
	</g>
</g>
</svg>
