<?xml version="1.0" encoding="utf-8"?>
<!-- Generator: Adobe Illustrator 24.0.2, SVG Export Plug-In . SVG Version: 6.00 Build 0)  -->
<svg version="1.1" id="Layer_1" xmlns="http://www.w3.org/2000/svg" xmlns:xlink="http://www.w3.org/1999/xlink" x="0px" y="0px"
	 viewBox="0 0 18 18" style="enable-background:new 0 0 18 18;" xml:space="preserve">
<style type="text/css">
	.st0{fill:#939393;}
	.st1{fill:#707070;}
	.st2{fill:#D01800;}
	.st3{fill:#FF0C00;}
</style>
<g>
	<g>
		<circle class="st1" cx="12.59" cy="3.17" r="2.24"/>
	</g>
	<g>
		<circle class="st1" cx="5.41" cy="6.45" r="2.24"/>
	</g>
	<g>
		<circle class="st1" cx="11.07" cy="9.67" r="2.44"/>
	</g>
	<g>
		<path class="st1" d="M8.1,11.22l0.07-0.06c-0.23-0.45-0.36-0.96-0.36-1.5c0-0.32,0.05-0.63,0.14-0.93
			c-0.09-0.1-0.19-0.19-0.29-0.28c-0.55,0.61-1.35,1-2.24,1s-1.68-0.39-2.24-1c-0.74,0.63-1.21,1.57-1.21,2.62
			c0,0.19,0.02,0.37,0.05,0.56c0.81,0.99,2.04,1.62,3.42,1.62c0.48,0,0.94-0.08,1.38-0.22C7.08,12.34,7.52,11.72,8.1,11.22z"/>
	</g>
	<g>
		<path class="st1" d="M13.5,11.86c-0.6,0.67-1.47,1.09-2.43,1.09c-0.96,0-1.83-0.42-2.43-1.09c-0.8,0.69-1.31,1.71-1.31,2.85
			c0,0.21,0.02,0.41,0.05,0.6c0.88,1.07,2.22,1.76,3.72,1.76c1.46,0,2.76-0.65,3.65-1.68c0.04-0.22,0.07-0.45,0.07-0.69
			C14.81,13.56,14.3,12.55,13.5,11.86z"/>
	</g>
	<g>
		<g>
			
				<rect x="7.9" y="5.36" transform="matrix(0.5859 -0.8104 0.8104 0.5859 -2.8999 10.0412)" class="st1" width="0.94" height="4.99"/>
		</g>
	</g>
	<g>
		<g>
			
				<rect x="5.72" y="4.13" transform="matrix(0.887 -0.4618 0.4618 0.887 -1.1052 4.6902)" class="st1" width="6.63" height="0.94"/>
		</g>
	</g>
	<g>
		<path class="st1" d="M14.83,5.19c-0.55,0.61-1.35,1-2.24,1c-0.89,0-1.68-0.39-2.24-1c-0.53,0.45-0.92,1.06-1.1,1.75
			C9.78,6.6,10.4,6.4,11.07,6.4c1.79,0,3.25,1.45,3.27,3.23c0.63-0.27,1.19-0.67,1.64-1.19c0.04-0.21,0.06-0.42,0.06-0.63
			C16.04,6.76,15.57,5.82,14.83,5.19z"/>
	</g>
</g>
</svg>
