<?xml version="1.0" encoding="utf-8"?>
<!-- Generator: Adobe Illustrator 24.0.2, SVG Export Plug-In . SVG Version: 6.00 Build 0)  -->
<svg version="1.1" id="Layer_1" xmlns="http://www.w3.org/2000/svg" xmlns:xlink="http://www.w3.org/1999/xlink" x="0px" y="0px"
	 viewBox="0 0 18 18" style="enable-background:new 0 0 18 18;" xml:space="preserve">
<style type="text/css">
	.st0{fill:#939393;}
	.st1{fill:#707070;}
	.st2{fill:#D01800;}
	.st3{fill:#FF0C00;}
</style>
<g>
	<path class="st1" d="M2.93,3.31v2.46h12.14V3.31H2.93z M4.61,5.15C4.27,5.15,4,4.88,4,4.54c0-0.34,0.27-0.61,0.61-0.61
		c0.34,0,0.61,0.27,0.61,0.61C5.21,4.88,4.94,5.15,4.61,5.15z"/>
	<path class="st1" d="M2.93,7.77v2.46h12.14V7.77H2.93z M4.61,9.61C4.27,9.61,4,9.34,4,9c0-0.34,0.27-0.61,0.61-0.61
		c0.34,0,0.61,0.27,0.61,0.61C5.21,9.34,4.94,9.61,4.61,9.61z"/>
	<path class="st1" d="M2.93,12.23v2.46h12.14v-2.46H2.93z M4.61,14.07C4.27,14.07,4,13.79,4,13.46s0.27-0.61,0.61-0.61
		c0.34,0,0.61,0.27,0.61,0.61S4.94,14.07,4.61,14.07z"/>
</g>
</svg>
